<svg width="55" height="36" viewBox="0 0 55 36" fill="none" xmlns="http://www.w3.org/2000/svg">
<path d="M41.4404 21.5148C40.0066 20.8144 35.4541 18.3736 31.7687 16.1055C27.7572 13.637 21.7915 10.5512 21.7915 10.5512L20.1458 9.83121C16.1456 7.83166 12.6752 7.59508 11.5294 7.57142C11.4378 7.56937 11.3607 7.56834 11.3 7.56834C10.3609 7.56834 7.59402 7.87897 5.64795 8.77898C7.71848 7.67634 11.9747 5.35998 14.1162 4.01152C16.8934 2.26293 21.1106 6.10352e-05 25.0192 6.10352e-05C26.6865 6.10352e-05 28.5246 0.34052 30.1014 0.749894C31.6535 1.1531 33.1593 1.71676 34.6004 2.42339C37.7015 3.94466 42.8064 6.26719 45.4879 6.84011C48.2527 7.42948 50.4672 8.72446 51.4649 9.48047C51.5956 9.57921 51.7149 9.69338 51.8177 9.8199L51.8136 9.82298C54.1701 13.8046 45.9867 19.218 41.4404 21.5148Z" fill="#0649E7"/>
<path d="M13.1267 26.9279C13.0331 26.9083 12.9847 26.897 12.9847 26.897C12.922 26.8826 12.8541 26.8672 12.7831 26.8507C11.5797 26.5741 9.29009 26.0433 8.39626 25.7327C6.95625 24.8255 5.20355 23.6159 3.564 22.2016C2.47474 21.2625 1.56753 20.1259 0.938042 18.832C0.406267 17.7375 0.0802082 16.5701 0.178952 14.5541C0.302381 12.0444 3.72755 9.73624 5.4247 8.89692C5.49567 8.85886 5.57076 8.81977 5.6479 8.77863C7.59397 7.87862 10.3608 7.56799 11.2999 7.56799C11.3606 7.56799 11.4378 7.56902 11.5293 7.57108C11.2218 7.99074 10.1099 9.59223 9.75707 11.2709C9.34564 13.2252 9.03706 14.048 9.13992 15.7966C9.24278 17.5452 9.24278 22.1738 12.8428 26.5967L13.1267 26.9279Z" fill="#0649E7"/>
<path d="M54.899 28.389C54.5226 29.7261 51.7105 32.9147 43.4818 34.9719C38.0304 36.3348 32.5326 36.057 28.5314 35.3957C26.0505 34.9853 23.6478 34.1963 21.3941 33.0803C19.267 32.026 16.8211 30.7815 16.0702 30.2919C14.7331 29.4176 12.3673 27.9776 11.2873 27.4118C10.8399 27.1773 9.75681 26.59 8.396 25.7332C9.28983 26.0438 11.5794 26.5746 12.7829 26.8513C12.8539 26.8677 12.9217 26.8831 12.9845 26.8975C12.9845 26.8975 13.0328 26.9089 13.1264 26.9294C14.5119 27.2195 25.9168 29.2664 41.2704 21.6004C41.3259 21.5726 41.3825 21.5438 41.4401 21.515C45.9864 19.2182 54.1698 13.8048 51.8133 9.82315L51.8174 9.82007C51.8822 9.89927 51.9409 9.98258 51.9923 10.071C52.1497 10.3395 52.3245 10.6882 52.4305 11.006C52.595 11.4997 54.1451 22.7997 54.899 28.389Z" fill="#0649E7"/>
</svg>
