<svg width="33" height="31" viewBox="0 0 33 31" fill="none" xmlns="http://www.w3.org/2000/svg">
<path d="M24.4343 9.93896C28.9164 9.93896 32.277 12.8642 32.2771 19.1499L32.2761 30.8843H25.4656V19.9351C25.4655 17.1852 24.4799 15.3091 22.0144 15.3091C20.1328 15.3091 19.0116 16.5736 18.5193 17.7954C18.3392 18.2333 18.2947 18.8439 18.2947 19.4556V30.8853H11.4832C11.4832 30.8853 11.5729 12.3398 11.4832 10.4194H18.2947V13.3188C19.1987 11.9254 20.8181 9.93904 24.4343 9.93896ZM7.71265 30.8843H0.9021V10.4194H7.71265V30.8843ZM4.35229 0.554199C6.68219 0.554241 8.1175 2.082 8.16187 4.08838C8.16187 6.05338 6.68231 7.62644 4.30737 7.62646H4.26343C1.97693 7.6263 0.498779 6.05329 0.498779 4.08838C0.498963 2.08198 2.02235 0.554199 4.35229 0.554199Z" fill="#FEFEFE"/>
</svg>
